<svg viewBox="0 0 24 24" xmlns="http://www.w3.org/2000/svg" class="filled">
    <title>Cash App</title><g fill="#fff"><path d="m15.479 24h-6.977c-2.349 0-3.527 0-4.846-.417a1.346 1.346 0 0 1 -.059-.019 5.423 5.423 0 0 1 -3.183-3.208c-.414-1.344-.414-2.523-.414-4.871v-6.97c0-2.349 0-3.528.416-4.848a5.441 5.441 0 0 1 3.225-3.252c1.335-.415 2.516-.415 4.871-.415h6.957c2.355 0 3.538 0 4.868.427a5.44 5.44 0 0 1 3.239 3.226c.424 1.344.424 2.526.424 4.881v6.951c0 2.349 0 3.528-.416 4.848a5.439 5.439 0 0 1 -3.235 3.252c-1.334.415-2.516.415-4.87.415zm-11.543-1.377.021.007c1.172.37 2.299.37 4.545.37h6.977c2.253 0 3.384 0 4.548-.361a4.417 4.417 0 0 0 2.602-2.597c.371-1.182.371-2.31.371-4.557v-6.951c0-2.253 0-3.384-.369-4.557a4.415 4.415 0 0 0 -2.588-2.595c-1.192-.382-2.252-.382-4.574-.382h-6.957c-2.253 0-3.384 0-4.548.361a4.412 4.412 0 0 0 -2.592 2.596c-.372 1.183-.372 2.311-.372 4.558v6.97c0 2.248 0 3.376.361 4.551a4.413 4.413 0 0 0 2.575 2.587z"/><path d="m11.42 20.408h-1.79c-.018 0-.126-.011-.144-.013-.518-.116-.838-.517-.838-.985 0-.06.006-.118.016-.174l.007-.036.18-.813a6.988 6.988 0 0 1 -2.638-1.558.522.522 0 0 1 -.087-.108.98.98 0 0 1 .078-1.297l.006-.006 1-.97a1.011 1.011 0 0 1 1.366 0 4.291 4.291 0 0 0 3.035 1.181c.778 0 1.678-.241 1.678-.921 0-.394-.354-.568-1.754-1.082l-.461-.17c-1.854-.664-3.755-1.668-3.755-4.07 0-2.35 1.704-3.928 4.476-4.184l.174-.857a.98.98 0 0 1 .96-.781l1.941.013c.592.133.926.657.807 1.179l-.185.934a8.014 8.014 0 0 1 2.23 1.333c.246.253.346.508.339.773a.952.952 0 0 1 -.299.67l-.919.92a1.02 1.02 0 0 1 -1.354.034 4.483 4.483 0 0 0 -2.892-1.058c-.239 0-1.438.034-1.438.71 0 .429.517.666 1.612 1.07l.304.112c2.154.718 4.164 1.718 4.164 4.11 0 2.414-1.819 4.119-4.67 4.419l-.182.838a.983.983 0 0 1 -.967.787zm-1.768-1.013a.03.03 0 0 0 -.002.01l1.77.003.252-1.196a.498.498 0 0 1 .458-.393c2.535-.152 4.11-1.475 4.11-3.453 0-1.666-1.339-2.447-3.498-3.167l-.315-.116c-1.114-.411-2.267-.836-2.267-2.009 0-1.055.935-1.71 2.439-1.71a5.492 5.492 0 0 1 3.544 1.299l.922-.912a7.436 7.436 0 0 0 -2.305-1.262.5.5 0 0 1 -.332-.571l.271-1.371-.031.013-1.729.002-.24 1.21a.5.5 0 0 1 -.467.4c-.918.042-3.913.399-3.913 3.212 0 1.677 1.238 2.465 3.099 3.131l.462.171c1.451.533 2.409.885 2.409 2.021 0 1.169-1.108 1.942-2.751 1.921-1.34 0-2.67-.529-3.653-1.458l-.963.95.014.015a6.035 6.035 0 0 0 2.628 1.417.5.5 0 0 1 .364.592z"/></g></svg>