<svg viewBox="0 0 24 24" xmlns="http://www.w3.org/2000/svg" class="filled">
    <title>Instagram</title>
    <g fill="#fff"><path d="m21.938 7.71a7.329 7.329 0 0 0 -.456-2.394 4.615 4.615 0 0 0 -1.1-1.694 4.61 4.61 0 0 0 -1.7-1.1 7.318 7.318 0 0 0 -2.393-.456c-1.104-.054-1.472-.066-4.289-.066s-3.185.012-4.29.062a7.329 7.329 0 0 0 -2.394.456 4.615 4.615 0 0 0 -1.694 1.1 4.61 4.61 0 0 0 -1.1 1.7 7.318 7.318 0 0 0 -.46 2.392c-.05 1.104-.062 1.472-.062 4.29s.012 3.186.062 4.29a7.329 7.329 0 0 0 .456 2.394 4.615 4.615 0 0 0 1.1 1.694 4.61 4.61 0 0 0 1.7 1.1 7.318 7.318 0 0 0 2.393.456c1.1.05 1.472.062 4.29.062s3.186-.012 4.29-.062a7.329 7.329 0 0 0 2.394-.456 4.9 4.9 0 0 0 2.8-2.8 7.318 7.318 0 0 0 .456-2.393c.05-1.1.062-1.472.062-4.29s-.015-3.181-.065-4.285zm-1 8.534a6.351 6.351 0 0 1 -.388 2.077 3.9 3.9 0 0 1 -2.228 2.229 6.363 6.363 0 0 1 -2.078.388c-1.085.05-1.444.062-4.244.062s-3.159-.012-4.244-.062a6.351 6.351 0 0 1 -2.077-.388 3.627 3.627 0 0 1 -1.35-.879 3.631 3.631 0 0 1 -.879-1.349 6.363 6.363 0 0 1 -.388-2.078c-.05-1.085-.062-1.444-.062-4.244s.012-3.159.062-4.244a6.351 6.351 0 0 1 .388-2.077 3.627 3.627 0 0 1 .879-1.35 3.631 3.631 0 0 1 1.349-.879 6.363 6.363 0 0 1 2.078-.388c1.086-.05 1.449-.062 4.244-.062s3.158.012 4.244.062a6.351 6.351 0 0 1 2.077.388 3.627 3.627 0 0 1 1.35.879 3.631 3.631 0 0 1 .879 1.349 6.363 6.363 0 0 1 .388 2.078c.05 1.085.062 1.444.062 4.244s-.012 3.159-.062 4.244z"/><path d="m17.581 5.467a.953.953 0 1 0 .952.952.954.954 0 0 0 -.952-.952z"/><path d="m12 7.073a4.927 4.927 0 1 0 4.927 4.927 4.932 4.932 0 0 0 -4.927-4.927zm0 8.854a3.927 3.927 0 1 1 3.927-3.927 3.932 3.932 0 0 1 -3.927 3.927z"/></g></svg>