<?xml version="1.0" encoding="UTF-8" standalone="no"?>
<!-- Created with Inkscape (http://www.inkscape.org/) -->

<svg version="1.1"
   id="svg1"
   width="144"
   height="144"
   viewBox="-10 -10 154 154"
   xmlns:xlink="http://www.w3.org/1999/xlink"
   xmlns="http://www.w3.org/2000/svg"
   xmlns:svg="http://www.w3.org/2000/svg"
   class="filled">
   <defs id="defs1" />
   <g id="g1">
      <path d="M 63,0.42437744 C 47.324165,2.4826508 24.096764,-2.8205872 11.185185,8.5293274 3.5178342,15.269318 2.4231489,27.48774 1.2854939,37 c -2.7668713,23.134613 -2.8526299,48.906898 0.2908949,72 1.2911058,9.48478 1.9994936,19.87299 9.5169762,26.78627 8.324363,7.6553 23.319809,7.09164 33.906635,7.21759 24.601242,0.29265 49.478561,2.35007 74,-1.30324 15.71114,-2.34071 21.1188,-14.38946 23.1304,-28.70062 3.21927,-22.902985 2.54364,-46.990921 0.95911,-70 -0.68079,-9.885773 -0.65822,-21.335197 -6.22299,-29.99614 C 126.44371,-3.2180481 98.39238,1.6784515 82,0.96064758 75.550179,0.67822266 69.497261,-0.4287262 63,0.42437744 M 50,11.285492 c 18.786186,-2.2165986 38.208725,0.624634 57,0.715271 7.54832,0.03641 18.33175,0.634186 23.35107,7.104179 C 136.04906,26.449745 135.99657,40.107964 136,49 c 0.007,18.409286 1.65309,37.74221 -0.71837,56 -0.84646,6.51692 -0.87971,14.44922 -4.93364,19.95602 -3.78447,5.14077 -9.47549,5.81907 -15.34799,6.61882 -23.995857,3.26796 -51.981209,4.00478 -76,0.84954 -7.580418,-0.99581 -17.85203,0.14096 -23.786265,-5.652 C 9.1832352,120.88545 9.6073771,110.76459 8.8310184,103 6.8210955,82.898178 6.8210945,61.10183 8.8310184,41 9.5958004,33.351189 9.4871902,23.219414 15.390432,17.394287 23.043156,9.8428345 40.125725,12.450562 50,11.285492 M 57,43 v 58 C 70.092285,97.433563 84.429932,81.520218 95,73 V 72 C 84.292091,62.144234 70.450684,48.686096 57,43 Z"
         id="path1" />
   </g>
</svg>
