<svg enable-background="new 0 0 24 24" viewBox="0 0 24 24" xmlns="http://www.w3.org/2000/svg"><path d="m9.37 23.5a7.468 7.468 0 0 1 0-14.936.537.537 0 0 1 .538.5v3.8a.542.542 0 0 1 -.5.5 2.671 2.671 0 1 0 2.645 2.669.432.432 0 0 1 0-.05v-14.983a.5.5 0 0 1 .5-.5h3.787a.5.5 0 0 1 .5.5 4.759 4.759 0 0 0 4.75 4.76.5.5 0 0 1 .5.5l.01 3.74a.533.533 0 0 1 -.519.515 9.427 9.427 0 0 1 -4.741-1.268v6.789a7.476 7.476 0 0 1 -7.47 7.464zm-.462-13.915a6.466 6.466 0 1 0 6.93 6.447v-7.706a.5.5 0 0 1 .791-.407 8.441 8.441 0 0 0 4.471 1.581l-.006-2.76a5.761 5.761 0 0 1 -5.235-5.24h-2.808v14.532a.458.458 0 0 1 0 .053 3.672 3.672 0 1 1 -4.14-3.695z" fill="#fff"/></svg>