<svg fill="none" height="113" viewBox="0 0 128 113" width="128" xmlns="http://www.w3.org/2000/svg" xmlns:xlink="http://www.w3.org/1999/xlink"><clipPath id="a"><path d="m0 .154297h128v112.635h-128z"/></clipPath><g clip-path="url(#a)" fill="#181a1c"><path d="m34.593 94.2052h-1.2086l-6.033-6.033v-1.2085l9.2229-9.2228h6.3896l.8519.8519v6.3896z"/><path d="m27.3514 25.9703v-1.2086l6.033-6.033h1.2086l9.2228 9.2228v6.3896l-.8519.852h-6.3896z"/><path d="m80.4594 74.759h-8.777l-.7331-.733v-20.5458c0-3.6554-1.4364-6.4887-5.8447-6.5877-2.2686-.0595-4.8641 0-7.6378.1089l-.4161.426v26.5887l-.7331.733h-8.777l-.7331-.733v-35.0982l.7331-.7331h19.7533c7.6774 0 13.8986 6.2212 13.8986 13.8986v21.9426z"/><path d="m35.8412 61.6034h-35.10813l-.73307-.7331v-8.7968l.73307-.7331h35.10813l.7331.7331v8.7968z"/><path d="m127.277 61.6034h-35.1083l-.7331-.7331v-8.7968l.7331-.7331h35.1083l.733.7331v8.7968z"/><path d="m58.9428 27.2185v-26.331133l.7331-.73307h8.7968l.7331.73307v26.331133l-.7331.733h-8.7968z"/><path d="m58.9428 112.056v-26.3306l.7331-.7331h8.7968l.7331.7331v26.3306l-.7331.734h-8.7968z"/></g></svg>